<svg width="151" height="33" viewBox="0 0 151 33" fill="none" xmlns="http://www.w3.org/2000/svg">
<g clip-path="url(#clip0_213_2206)">
<path d="M18.5425 19.8023C20.3681 19.8023 21.848 18.3224 21.848 16.4969C21.848 14.6713 20.3681 13.1914 18.5425 13.1914C16.717 13.1914 15.2371 14.6713 15.2371 16.4969C15.2371 18.3224 16.717 19.8023 18.5425 19.8023Z" fill="#61DAFB"/>
<path d="M18.5425 23.2708C28.3381 23.2708 36.279 20.2389 36.279 16.4987C36.279 12.7586 28.3381 9.72656 18.5425 9.72656C8.74684 9.72656 0.805908 12.7586 0.805908 16.4987C0.805908 20.2389 8.74684 23.2708 18.5425 23.2708Z" stroke="#61DAFB" stroke-width="1.61242"/>
<path d="M12.6781 19.8825C17.576 28.3657 24.1722 33.7268 27.4113 31.8567C30.6503 29.9866 29.3057 21.5936 24.4078 13.1103C19.51 4.62705 12.9138 -0.734004 9.6747 1.13607C6.43564 3.00615 7.78032 11.3992 12.6781 19.8825Z" stroke="#61DAFB" stroke-width="1.61242"/>
<path d="M12.6785 13.1136C7.78069 21.5968 6.43601 29.9899 9.67507 31.86C12.9141 33.73 19.5104 28.369 24.4082 19.8857C29.306 11.4024 30.6507 3.00939 27.4116 1.13932C24.1726 -0.730757 17.5763 4.6303 12.6785 13.1136Z" stroke="#61DAFB" stroke-width="1.61242"/>
</g>
<path d="M57.2211 25.998C56.7592 25.998 56.3468 25.8578 55.9838 25.5774C55.6209 25.2804 55.4394 24.9174 55.4394 24.4885V10.1849C55.4394 9.75595 55.5796 9.40125 55.8601 9.12078C56.157 8.82382 56.52 8.67534 56.9489 8.67534H64.076C64.9339 8.67534 65.734 8.90631 66.4764 9.36825C67.2353 9.81369 67.8457 10.4406 68.3077 11.249C68.7696 12.0409 69.0006 12.9565 69.0006 13.9959C69.0006 14.6228 68.8686 15.2332 68.6046 15.8271C68.3572 16.4211 68.0107 16.9572 67.5653 17.4357C67.1363 17.9141 66.6496 18.2853 66.1052 18.5493L66.13 17.9801C66.5919 18.2276 66.9714 18.5245 67.2683 18.871C67.5818 19.2009 67.821 19.5639 67.986 19.9598C68.1674 20.3393 68.2747 20.7517 68.3077 21.1972C68.3737 21.6096 68.4149 21.9726 68.4314 22.286C68.4644 22.5995 68.5139 22.8635 68.5799 23.0779C68.6624 23.2924 68.8109 23.4574 69.0253 23.5729C69.3883 23.7873 69.611 24.1008 69.6935 24.5132C69.7925 24.9092 69.7017 25.2639 69.4213 25.5774C69.2398 25.7918 69.0088 25.9321 68.7284 25.998C68.4479 26.0475 68.1674 26.0475 67.887 25.998C67.6065 25.9321 67.3755 25.8496 67.1941 25.7506C66.9136 25.5856 66.6331 25.3464 66.3527 25.0329C66.0722 24.703 65.8413 24.2658 65.6598 23.7213C65.4948 23.1769 65.4123 22.4758 65.4123 21.6179C65.4123 21.3374 65.3628 21.0817 65.2638 20.8507C65.1648 20.6033 65.0246 20.397 64.8431 20.2321C64.6617 20.0506 64.4307 19.9186 64.1502 19.8361C63.8698 19.7371 63.5398 19.6876 63.1604 19.6876H58.1615L58.5327 19.1185V24.4885C58.5327 24.9174 58.4172 25.2804 58.1863 25.5774C57.9553 25.8578 57.6336 25.998 57.2211 25.998ZM58.1863 17.1387H63.9523C64.2492 17.1387 64.5379 17.0067 64.8184 16.7428C65.0988 16.4623 65.3298 16.0911 65.5113 15.6292C65.6928 15.1507 65.7835 14.6311 65.7835 14.0701C65.7835 13.3442 65.5855 12.7421 65.1896 12.2636C64.8101 11.7687 64.3977 11.5212 63.9523 11.5212H58.2358L58.5327 10.7293V17.7326L58.1863 17.1387ZM78.5439 26.2455C77.1416 26.2455 75.9208 25.9568 74.8814 25.3794C73.8585 24.7855 73.0666 23.9853 72.5057 22.9789C71.9613 21.9726 71.6891 20.8342 71.6891 19.5639C71.6891 18.0791 71.986 16.817 72.58 15.7777C73.1904 14.7218 73.9823 13.9134 74.9556 13.3525C75.929 12.7915 76.9601 12.5111 78.049 12.5111C78.8904 12.5111 79.6823 12.6843 80.4247 13.0308C81.1836 13.3772 81.8517 13.8557 82.4292 14.4661C83.0066 15.06 83.4603 15.7529 83.7902 16.5448C84.1367 17.3367 84.3099 18.1781 84.3099 19.069C84.2934 19.4649 84.1367 19.7866 83.8397 20.0341C83.5428 20.2816 83.1963 20.4053 82.8004 20.4053H73.3471L72.6047 17.9306H81.6868L81.1423 18.4255V17.7574C81.1093 17.279 80.9361 16.85 80.6226 16.4706C80.3257 16.0911 79.9462 15.7941 79.4843 15.5797C79.0389 15.3487 78.5604 15.2332 78.049 15.2332C77.5541 15.2332 77.0921 15.2992 76.6632 15.4312C76.2342 15.5632 75.863 15.7859 75.5496 16.0994C75.2361 16.4128 74.9886 16.8335 74.8072 17.3614C74.6257 17.8894 74.535 18.5575 74.535 19.3659C74.535 20.2568 74.7164 21.0157 75.0794 21.6426C75.4588 22.253 75.9373 22.7232 76.5147 23.0532C77.1086 23.3666 77.7355 23.5234 78.3954 23.5234C79.0059 23.5234 79.4925 23.4739 79.8555 23.3749C80.2185 23.2759 80.5072 23.1604 80.7216 23.0284C80.9526 22.88 81.1588 22.7562 81.3403 22.6572C81.6373 22.5088 81.9177 22.4345 82.1817 22.4345C82.5446 22.4345 82.8416 22.5583 83.0726 22.8057C83.32 23.0532 83.4438 23.3419 83.4438 23.6719C83.4438 24.1173 83.2128 24.5215 82.7509 24.8844C82.3219 25.2474 81.7198 25.5691 80.9444 25.8496C80.169 26.1135 79.3688 26.2455 78.5439 26.2455ZM98.0876 12.5111C98.5166 12.5111 98.8713 12.6513 99.1518 12.9318C99.4322 13.2122 99.5724 13.5752 99.5724 14.0206V24.4885C99.5724 24.9174 99.4322 25.2804 99.1518 25.5774C98.8713 25.8578 98.5166 25.998 98.0876 25.998C97.6587 25.998 97.304 25.8578 97.0235 25.5774C96.7431 25.2804 96.6028 24.9174 96.6028 24.4885V23.2759L97.1473 23.4986C97.1473 23.7131 97.0318 23.9771 96.8008 24.2905C96.5698 24.5875 96.2564 24.8844 95.8604 25.1814C95.4645 25.4784 94.9943 25.7341 94.4499 25.9486C93.9219 26.1465 93.3445 26.2455 92.7176 26.2455C91.5793 26.2455 90.5481 25.9568 89.6243 25.3794C88.7004 24.7855 87.9662 23.9771 87.4218 22.9542C86.8939 21.9148 86.6299 20.727 86.6299 19.3907C86.6299 18.0379 86.8939 16.85 87.4218 15.8271C87.9662 14.7878 88.6921 13.9794 89.5995 13.402C90.5069 12.808 91.5133 12.5111 92.6186 12.5111C93.328 12.5111 93.9797 12.6183 94.5736 12.8328C95.1675 13.0473 95.679 13.3195 96.1079 13.6494C96.5533 13.9794 96.8916 14.3176 97.1225 14.664C97.37 14.994 97.4937 15.2745 97.4937 15.5054L96.6028 15.8271V14.0206C96.6028 13.5917 96.7431 13.237 97.0235 12.9565C97.304 12.6596 97.6587 12.5111 98.0876 12.5111ZM93.0888 23.5234C93.8147 23.5234 94.4499 23.3419 94.9943 22.9789C95.5387 22.616 95.9594 22.1211 96.2564 21.4941C96.5698 20.8672 96.7266 20.1661 96.7266 19.3907C96.7266 18.5988 96.5698 17.8894 96.2564 17.2625C95.9594 16.6355 95.5387 16.1406 94.9943 15.7777C94.4499 15.4147 93.8147 15.2332 93.0888 15.2332C92.3794 15.2332 91.7525 15.4147 91.2081 15.7777C90.6636 16.1406 90.2347 16.6355 89.9212 17.2625C89.6243 17.8894 89.4758 18.5988 89.4758 19.3907C89.4758 20.1661 89.6243 20.8672 89.9212 21.4941C90.2347 22.1211 90.6636 22.616 91.2081 22.9789C91.7525 23.3419 92.3794 23.5234 93.0888 23.5234ZM108.925 12.5111C109.865 12.5111 110.682 12.6101 111.375 12.808C112.084 13.006 112.629 13.2865 113.008 13.6494C113.404 13.9959 113.602 14.4166 113.602 14.9115C113.602 15.2415 113.503 15.5549 113.305 15.8519C113.107 16.1324 112.818 16.2726 112.439 16.2726C112.175 16.2726 111.952 16.2396 111.771 16.1736C111.606 16.0911 111.457 15.9921 111.325 15.8766C111.193 15.7612 111.037 15.6539 110.855 15.5549C110.69 15.4559 110.435 15.3817 110.088 15.3322C109.758 15.2662 109.511 15.2332 109.346 15.2332C108.504 15.2332 107.787 15.4147 107.193 15.7777C106.615 16.1406 106.17 16.6355 105.856 17.2625C105.543 17.8729 105.386 18.5823 105.386 19.3907C105.386 20.1826 105.543 20.892 105.856 21.5189C106.186 22.1293 106.632 22.616 107.193 22.9789C107.77 23.3419 108.43 23.5234 109.172 23.5234C109.585 23.5234 109.94 23.4986 110.237 23.4491C110.534 23.3996 110.781 23.3254 110.979 23.2264C111.21 23.0944 111.416 22.9542 111.598 22.8057C111.779 22.6572 112.051 22.583 112.414 22.583C112.843 22.583 113.173 22.7232 113.404 23.0037C113.635 23.2677 113.751 23.5976 113.751 23.9936C113.751 24.406 113.52 24.7855 113.058 25.1319C112.596 25.4619 111.985 25.7341 111.226 25.9486C110.484 26.1465 109.676 26.2455 108.801 26.2455C107.498 26.2455 106.368 25.9486 105.411 25.3546C104.454 24.7442 103.712 23.9193 103.184 22.88C102.672 21.8406 102.417 20.6775 102.417 19.3907C102.417 18.0379 102.689 16.85 103.233 15.8271C103.794 14.7878 104.561 13.9794 105.535 13.402C106.525 12.808 107.655 12.5111 108.925 12.5111ZM116.288 13.006H122.153C122.549 13.006 122.879 13.138 123.143 13.402C123.407 13.6659 123.539 13.9959 123.539 14.3918C123.539 14.7713 123.407 15.093 123.143 15.357C122.879 15.6044 122.549 15.7282 122.153 15.7282H116.288C115.892 15.7282 115.562 15.5962 115.298 15.3322C115.034 15.0682 114.902 14.7383 114.902 14.3423C114.902 13.9629 115.034 13.6494 115.298 13.402C115.562 13.138 115.892 13.006 116.288 13.006ZM118.936 9.91268C119.365 9.91268 119.711 10.0612 119.975 10.3581C120.256 10.6386 120.396 10.9933 120.396 11.4222V22.4345C120.396 22.6655 120.437 22.8552 120.52 23.0037C120.619 23.1522 120.742 23.2594 120.891 23.3254C121.056 23.3914 121.229 23.4244 121.41 23.4244C121.608 23.4244 121.79 23.3914 121.955 23.3254C122.12 23.2429 122.31 23.2017 122.524 23.2017C122.755 23.2017 122.961 23.3089 123.143 23.5234C123.341 23.7378 123.44 24.0348 123.44 24.4143C123.44 24.8762 123.184 25.2556 122.673 25.5526C122.178 25.8496 121.641 25.998 121.064 25.998C120.718 25.998 120.33 25.9733 119.901 25.9238C119.488 25.8578 119.093 25.7176 118.713 25.5031C118.35 25.2721 118.045 24.9257 117.797 24.4638C117.55 24.0018 117.426 23.3666 117.426 22.5583V11.4222C117.426 10.9933 117.566 10.6386 117.847 10.3581C118.144 10.0612 118.507 9.91268 118.936 9.91268ZM127.824 25.9733C127.346 25.9733 126.975 25.8496 126.711 25.6021C126.463 25.3381 126.34 24.9669 126.34 24.4885V24.0678C126.34 23.5894 126.463 23.2264 126.711 22.9789C126.975 22.715 127.346 22.583 127.824 22.583H128.146C128.624 22.583 128.987 22.715 129.235 22.9789C129.499 23.2264 129.631 23.5894 129.631 24.0678V24.4885C129.631 24.9669 129.499 25.3381 129.235 25.6021C128.987 25.8496 128.624 25.9733 128.146 25.9733H127.824ZM136.264 26.2455C136.264 27.1859 136.082 27.9943 135.719 28.6707C135.356 29.3636 134.869 29.8998 134.259 30.2792C133.649 30.6587 132.964 30.8484 132.205 30.8484C131.793 30.8484 131.463 30.7082 131.215 30.4277C130.951 30.1637 130.819 29.842 130.819 29.4626V29.1904C130.819 28.8274 130.943 28.5387 131.19 28.3242C131.421 28.1098 131.718 27.9448 132.081 27.8293C132.477 27.6973 132.758 27.5076 132.923 27.2601C133.088 27.0292 133.187 26.7487 133.22 26.4187C133.269 26.0888 133.294 25.7423 133.294 25.3794V14.2681C133.294 13.8392 133.434 13.4845 133.715 13.204C133.995 12.907 134.35 12.7586 134.779 12.7586C135.208 12.7586 135.562 12.907 135.843 13.204C136.123 13.4845 136.264 13.8392 136.264 14.2681V26.2455ZM134.729 11.15C134.168 11.15 133.772 11.0593 133.541 10.8778C133.31 10.6963 133.195 10.3746 133.195 9.91268V9.44249C133.195 8.96405 133.319 8.64235 133.566 8.47737C133.83 8.29589 134.226 8.20515 134.754 8.20515C135.331 8.20515 135.736 8.29589 135.967 8.47737C136.198 8.65884 136.313 8.98055 136.313 9.44249V9.91268C136.313 10.3911 136.189 10.7211 135.942 10.9025C135.694 11.0675 135.29 11.15 134.729 11.15ZM139.218 23.9441C139.053 23.7131 138.979 23.4161 138.995 23.0532C139.012 22.6902 139.226 22.3768 139.639 22.1128C139.903 21.9478 140.183 21.8818 140.48 21.9148C140.777 21.9313 141.066 22.0798 141.346 22.3603C141.825 22.8387 142.328 23.2099 142.856 23.4739C143.384 23.7378 144.044 23.8698 144.836 23.8698C145.083 23.8533 145.355 23.8203 145.652 23.7708C145.949 23.7049 146.205 23.5729 146.419 23.3749C146.65 23.1604 146.766 22.8387 146.766 22.4098C146.766 22.0468 146.642 21.7581 146.395 21.5436C146.147 21.3292 145.817 21.1477 145.405 20.9992C145.009 20.8507 144.563 20.7105 144.068 20.5785C143.557 20.43 143.029 20.2651 142.485 20.0836C141.957 19.9021 141.47 19.6711 141.025 19.3907C140.579 19.0937 140.216 18.706 139.936 18.2276C139.655 17.7491 139.515 17.147 139.515 16.4211C139.515 15.5962 139.746 14.895 140.208 14.3176C140.67 13.7402 141.264 13.2947 141.99 12.9813C142.732 12.6678 143.507 12.5111 144.316 12.5111C144.827 12.5111 145.363 12.5771 145.924 12.7091C146.485 12.8245 147.022 13.0225 147.533 13.303C148.044 13.5669 148.473 13.9216 148.82 14.3671C149.001 14.6146 149.108 14.9115 149.141 15.258C149.174 15.6044 149.018 15.9179 148.671 16.1983C148.424 16.3963 148.135 16.4871 147.805 16.4706C147.475 16.4376 147.203 16.3221 146.989 16.1241C146.708 15.7612 146.329 15.4724 145.85 15.258C145.388 15.0435 144.852 14.9363 144.242 14.9363C143.994 14.9363 143.722 14.9693 143.425 15.0352C143.145 15.0847 142.897 15.2085 142.683 15.4064C142.468 15.5879 142.361 15.8849 142.361 16.2973C142.361 16.6768 142.485 16.982 142.732 17.213C142.98 17.4274 143.31 17.6089 143.722 17.7574C144.151 17.8894 144.605 18.0214 145.083 18.1533C145.578 18.2853 146.081 18.442 146.593 18.6235C147.104 18.805 147.574 19.0442 148.003 19.3412C148.432 19.6381 148.779 20.0258 149.043 20.5043C149.306 20.9662 149.438 21.5601 149.438 22.286C149.438 23.1274 149.191 23.8451 148.696 24.439C148.201 25.0329 147.582 25.4866 146.84 25.8001C146.098 26.097 145.339 26.2455 144.563 26.2455C143.59 26.2455 142.617 26.0805 141.643 25.7506C140.67 25.4041 139.861 24.802 139.218 23.9441Z" fill="#461010"/>
<defs>
<clipPath id="clip0_213_2206">
<rect width="37.0855" height="32.9956" fill="white"/>
</clipPath>
</defs>
</svg>
